<svg width="37" height="37" viewBox="0 0 37 37" fill="none" xmlns="http://www.w3.org/2000/svg">
<rect x="0.256836" y="0.406738" width="36.467" height="36.467" rx="18.2335" fill="white"/>
<g clip-path="url(#clip0_0_1)">
<path d="M28.507 14.2658L28.8768 13.6556C28.8768 13.6556 29.2024 13.1158 29.2024 12.391C29.2024 10.6351 27.527 10.6814 27.527 10.6814L23.8768 9.68777L21.8855 7.71875L19.2653 8.43211L18.4061 8.19816L17.7531 8.84395L13.9807 9.87105C13.9807 9.87105 12.5288 9.83116 12.5288 11.3528C12.5288 11.9809 12.8113 12.4488 12.8113 12.4488L13.2968 13.2502L12.8703 13.6714L10.7643 14.245C10.7643 14.245 9.08891 14.1986 9.08891 15.9545C9.09226 16.3636 9.18796 16.7667 9.36886 17.1337L8.71875 17.7766L9.0598 17.9117C9.06734 17.93 9.07022 17.9505 9.08495 17.9653C9.74441 18.6261 9.69014 19.5138 9.59598 19.9932L9.19744 20.3925L12.2165 21.844L16.363 28.6883C17.0275 29.7326 18.438 29.0793 18.438 29.0793L29.0932 23.956L28.6946 23.5568C28.6005 23.0774 28.5462 22.1897 29.2056 21.5285C29.2204 21.5137 29.2232 21.4932 29.2308 21.4753L29.5718 21.3398L27.5906 19.3812L29.8655 18.2876L29.5201 17.9415C29.4385 17.5261 29.3914 16.7567 29.9632 16.1838C29.9758 16.1709 29.9779 16.1536 29.9848 16.1375L30.2812 16.02L28.507 14.2658ZM26.464 11.0908L26.0147 11.8016L24.8525 10.6523L26.464 11.0908ZM22.0789 9.56738L23.7475 11.351L17.7139 13.5313L16.289 11.319L22.0789 9.56738ZM13.658 13.8468L17.7754 20.643L9.93128 17.5315L13.658 13.8468ZM11.942 14.5896L11.4586 15.0676L11.2653 14.7711L11.942 14.5896ZM10.4157 14.9612L10.8657 15.6537L9.89067 16.6176C9.81396 16.4049 9.77374 16.1807 9.77172 15.9545C9.77172 15.2983 10.0973 15.0486 10.4157 14.9612ZM9.85222 20.3062L9.85761 20.2854L18.8948 24.241L9.92841 19.9666C9.93667 19.9181 9.94314 19.8645 9.94997 19.8106L16.9696 22.7503L9.97441 19.4743C9.97619 19.3245 9.96585 19.1749 9.9435 19.0268L16.4406 21.7024L9.85617 18.6438C9.81391 18.5022 9.75731 18.3652 9.68727 18.2351L18.6296 22.0535L18.833 22.3892C19.2524 23.0482 20.0132 22.9264 20.3966 22.8121C20.9267 23.0738 21.8769 23.679 21.6336 24.5706C21.5053 25.0421 21.2232 25.2706 20.7715 25.2706C20.314 25.2706 19.8572 25.0313 19.8525 25.028L9.85222 20.3062ZM18.8531 25.0352L18.1466 25.3278L17.5464 24.4067L18.8531 25.0352ZM16.1168 26.969L13.3392 22.3838L16.1 23.7109L17.4056 25.7206C16.8791 25.9455 16.2908 26.4591 16.1168 26.969ZM28.3475 22.5904C28.3251 22.7385 28.3148 22.8881 28.3165 23.0378L21.3213 26.3139L28.341 23.3742C28.3478 23.4277 28.3539 23.4817 28.3625 23.5302L19.3961 27.8049L28.4333 23.8493C28.4354 23.8562 28.4372 23.8631 28.4387 23.8701L18.4384 28.5913C18.4337 28.5945 17.9777 28.8338 17.5195 28.8338C17.0674 28.8338 16.7856 28.6049 16.6573 28.1338C16.3274 26.9237 18.2034 26.2377 18.2314 26.2273L19.8755 25.5258C20.052 25.6009 21.3109 26.095 21.9279 25.1251L22.3171 24.4832L28.604 21.7987C28.534 21.9289 28.4773 22.0658 28.4348 22.2073L21.8503 25.266L28.3475 22.5904ZM28.3597 21.095L23.0319 23.303L24.5104 20.8625L26.9423 19.6935L28.3597 21.095ZM29.2197 17.1035C29.2005 17.2318 29.1915 17.3615 29.1927 17.4912L23.1308 20.3303L29.2143 17.7827C29.2204 17.829 29.2254 17.8761 29.233 17.9178L21.4618 21.6222L29.294 18.1942C29.2959 18.2001 29.2975 18.2061 29.2987 18.2121L20.6317 22.3043C20.6277 22.3069 20.232 22.5146 19.8353 22.5146C19.4432 22.5146 19.1992 22.3158 19.0882 21.9076C18.8021 20.8589 20.4279 20.2645 20.4523 20.2555L29.4417 16.4174C29.3811 16.5303 29.3321 16.649 29.2955 16.7718L23.5886 19.4225L29.2197 17.1035Z" fill="#111111"/>
</g>
<defs>
<clipPath id="clip0_0_1">
<rect width="23" height="23" fill="white" transform="translate(8 7)"/>
</clipPath>
</defs>
</svg>