<svg width="81" height="81" viewBox="0 0 81 81" fill="none" xmlns="http://www.w3.org/2000/svg">
<rect width="81" height="81" rx="20" fill="#DDE7FA"/>
<path d="M45.9165 16.125V26.9583C45.9165 27.6766 46.2018 28.3655 46.7098 28.8734C47.2177 29.3813 47.9065 29.6667 48.6248 29.6667H59.4582" stroke="#545454" stroke-width="3" stroke-linecap="round" stroke-linejoin="round"/>
<path d="M35.0832 64.875H26.9582C25.5216 64.875 24.1438 64.3043 23.128 63.2885C22.1122 62.2727 21.5415 60.8949 21.5415 59.4583V21.5417C21.5415 20.1051 22.1122 18.7273 23.128 17.7115C24.1438 16.6957 25.5216 16.125 26.9582 16.125H45.9165L59.4582 29.6667V39.1458M32.3748 32.375H35.0832M32.3748 43.2083H39.1457M32.3748 54.0417H35.0832" stroke="#545454" stroke-width="3" stroke-linecap="round" stroke-linejoin="round"/>
<path d="M45.9165 64.875V54.0417C45.9165 52.6051 46.4872 51.2273 47.503 50.2115C48.5188 49.1957 49.8966 48.625 51.3332 48.625C52.7698 48.625 54.1475 49.1957 55.1633 50.2115C56.1792 51.2273 56.7498 52.6051 56.7498 54.0417V64.875M45.9165 59.4583H56.7498M64.8748 48.625V64.875" stroke="#545454" stroke-width="3" stroke-linecap="round" stroke-linejoin="round"/>
</svg>