<svg width="38" height="37" viewBox="0 0 38 37" fill="none" xmlns="http://www.w3.org/2000/svg">
<rect x="0.726562" y="0.406738" width="36.467" height="36.467" rx="18.2335" fill="white"/>
<path d="M15.267 20.68C15.083 20.68 14.959 20.698 14.895 20.716V21.894C14.971 21.912 15.066 21.917 15.197 21.917C15.676 21.917 15.971 21.675 15.971 21.266C15.971 20.9 15.717 20.68 15.267 20.68ZM18.754 20.692C18.554 20.692 18.424 20.71 18.347 20.728V23.338C18.424 23.356 18.548 23.356 18.66 23.356C19.477 23.362 20.009 22.912 20.009 21.96C20.015 21.13 19.53 20.692 18.754 20.692Z" fill="#111111"/>
<path d="M21 8H13C12.4696 8 11.9609 8.21071 11.5858 8.58579C11.2107 8.96086 11 9.46957 11 10V26C11 26.5304 11.2107 27.0391 11.5858 27.4142C11.9609 27.7893 12.4696 28 13 28H25C25.5304 28 26.0391 27.7893 26.4142 27.4142C26.7893 27.0391 27 26.5304 27 26V14L21 8ZM16.498 22.19C16.189 22.48 15.733 22.61 15.202 22.61C15.099 22.6111 14.9961 22.6051 14.894 22.592V24.018H14V20.082C14.4035 20.0218 14.8111 19.9944 15.219 20C15.776 20 16.172 20.106 16.439 20.319C16.693 20.521 16.865 20.852 16.865 21.242C16.864 21.634 16.734 21.965 16.498 22.19ZM20.305 23.545C19.885 23.894 19.246 24.06 18.465 24.06C17.997 24.06 17.666 24.03 17.441 24V20.083C17.8446 20.0241 18.2521 19.9963 18.66 20C19.417 20 19.909 20.136 20.293 20.426C20.708 20.734 20.968 21.225 20.968 21.93C20.968 22.693 20.689 23.22 20.305 23.545ZM24 20.77H22.468V21.681H23.9V22.415H22.468V24.019H21.562V20.03H24V20.77ZM21 15H20V10L25 15H21Z" fill="#111111"/>
</svg>