<svg width="38" height="37" viewBox="0 0 38 37" fill="none" xmlns="http://www.w3.org/2000/svg">
<rect x="0.726562" y="0.406738" width="36.467" height="36.467" rx="18.2335" fill="white"/>
<g clip-path="url(#clip0_0_1)">
<path d="M10.6309 22.9172H13.3322V24.7181C13.3322 25.713 12.5263 26.5189 11.5314 26.5189C11.0361 26.5189 10.6309 26.9241 10.6309 27.4193C10.6309 27.9146 11.0361 28.3198 11.5314 28.3198C12.5669 28.3153 13.5528 27.8605 14.2326 27.0772C14.9125 27.8605 15.8984 28.3153 16.9339 28.3198C17.4291 28.3198 17.8343 27.9146 17.8343 27.4193C17.8343 26.9241 17.4291 26.5189 16.9339 26.5189C15.9389 26.5189 15.1331 25.713 15.1331 24.7181V10.3113C15.1331 9.31637 15.9389 8.5105 16.9339 8.5105C17.4291 8.5105 17.8343 8.10531 17.8343 7.61008C17.8343 7.11485 17.4291 6.70966 16.9339 6.70966C15.8984 6.71416 14.9125 7.16887 14.2326 7.95224C13.5528 7.16887 12.5669 6.71416 11.5314 6.70966C11.0361 6.70966 10.6309 7.11485 10.6309 7.61008C10.6309 8.10531 11.0361 8.5105 11.5314 8.5105C12.5263 8.5105 13.3322 9.31637 13.3322 10.3113V12.1122H10.6309C9.14075 12.1122 7.92969 13.3232 7.92969 14.8134V20.216C7.92969 21.7062 9.14075 22.9172 10.6309 22.9172ZM9.73053 14.8134C9.73053 14.3182 10.1357 13.913 10.6309 13.913H13.3322V21.1164H10.6309C10.1357 21.1164 9.73053 20.7112 9.73053 20.216V14.8134Z" fill="#545454"/>
<path d="M26.8385 21.1164H17.8343C17.339 21.1164 16.9338 21.5216 16.9338 22.0168C16.9338 22.512 17.339 22.9172 17.8343 22.9172H26.8385C28.3287 22.9172 29.5397 21.7062 29.5397 20.216V14.8134C29.5397 13.3232 28.3287 12.1122 26.8385 12.1122H17.8343C17.339 12.1122 16.9338 12.5174 16.9338 13.0126C16.9338 13.5078 17.339 13.913 17.8343 13.913H26.8385C27.3337 13.913 27.7389 14.3182 27.7389 14.8134V20.216C27.7389 20.7112 27.3337 21.1164 26.8385 21.1164Z" fill="#545454"/>
</g>
<defs>
<clipPath id="clip0_0_1">
<rect width="21.6101" height="21.6101" fill="white" transform="translate(7.92969 6.70966)"/>
</clipPath>
</defs>
</svg>